<svg width="160" height="248" viewBox="0 0 160 248" fill="none" xmlns="http://www.w3.org/2000/svg">
<path d="M36.5425 246.63C33.8544 237.562 26.3875 237.212 23.6994 246.628L12.9471 246.631C10.259 237.564 3.68809 237.212 1 246.628V1.12842H159V246.631L150.04 246.63C147.352 237.563 140.482 237.213 137.794 246.628L127.34 246.63C124.652 237.563 117.783 237.213 115.095 246.628L104.641 246.63C101.953 237.563 95.0832 237.212 92.3951 246.628L81.9414 246.63C79.2533 237.563 72.3837 237.212 69.6957 246.628L59.242 246.63C56.5539 237.562 49.6843 237.212 46.9962 246.628L36.5425 246.63Z" fill="#BC8110" stroke="black"/>
</svg>
