<svg width="69" height="69" viewBox="0 0 69 69" fill="none" xmlns="http://www.w3.org/2000/svg">
<circle cx="34.5" cy="34.5" r="32.5" stroke="#880000" stroke-width="4"/>
<path d="M24.048 48.432C21.48 48.432 19.152 47.88 17.064 46.776C15 45.648 13.368 44.1 12.168 42.132C10.992 40.14 10.404 37.896 10.404 35.4C10.404 32.904 10.992 30.672 12.168 28.704C13.368 26.712 15 25.164 17.064 24.06C19.152 22.932 21.492 22.368 24.084 22.368C26.268 22.368 28.236 22.752 29.988 23.52C31.764 24.288 33.252 25.392 34.452 26.832L30.708 30.288C29.004 28.32 26.892 27.336 24.372 27.336C22.812 27.336 21.42 27.684 20.196 28.38C18.972 29.052 18.012 30 17.316 31.224C16.644 32.448 16.308 33.84 16.308 35.4C16.308 36.96 16.644 38.352 17.316 39.576C18.012 40.8 18.972 41.76 20.196 42.456C21.42 43.128 22.812 43.464 24.372 43.464C26.892 43.464 29.004 42.468 30.708 40.476L34.452 43.932C33.252 45.396 31.764 46.512 29.988 47.28C28.212 48.048 26.232 48.432 24.048 48.432ZM46.4594 48.432C44.4674 48.432 42.5354 48.168 40.6634 47.64C38.8154 47.088 37.3274 46.38 36.1994 45.516L38.1794 41.124C39.2594 41.916 40.5434 42.552 42.0314 43.032C43.5194 43.512 45.0074 43.752 46.4954 43.752C48.1514 43.752 49.3754 43.512 50.1674 43.032C50.9594 42.528 51.3554 41.868 51.3554 41.052C51.3554 40.452 51.1154 39.96 50.6354 39.576C50.1794 39.168 49.5794 38.844 48.8354 38.604C48.1154 38.364 47.1314 38.1 45.8834 37.812C43.9634 37.356 42.3914 36.9 41.1674 36.444C39.9434 35.988 38.8874 35.256 37.9994 34.248C37.1354 33.24 36.7034 31.896 36.7034 30.216C36.7034 28.752 37.0994 27.432 37.8914 26.256C38.6834 25.056 39.8714 24.108 41.4554 23.412C43.0634 22.716 45.0194 22.368 47.3234 22.368C48.9314 22.368 50.5034 22.56 52.0394 22.944C53.5754 23.328 54.9194 23.88 56.0714 24.6L54.2714 29.028C51.9434 27.708 49.6154 27.048 47.2874 27.048C45.6554 27.048 44.4434 27.312 43.6514 27.84C42.8834 28.368 42.4994 29.064 42.4994 29.928C42.4994 30.792 42.9434 31.44 43.8314 31.872C44.7434 32.28 46.1234 32.688 47.9714 33.096C49.8914 33.552 51.4634 34.008 52.6874 34.464C53.9114 34.92 54.9554 35.64 55.8194 36.624C56.7074 37.608 57.1514 38.94 57.1514 40.62C57.1514 42.06 56.7434 43.38 55.9274 44.58C55.1354 45.756 53.9354 46.692 52.3274 47.388C50.7194 48.084 48.7634 48.432 46.4594 48.432Z" fill="#880000"/>
</svg>
