<svg width="76" height="76" viewBox="0 0 76 76" fill="none" xmlns="http://www.w3.org/2000/svg">
    <rect x="2" y="2" width="72" height="72" rx="23" stroke="#880000" stroke-width="4"/>
    <path d="M27.048 51.432C24.48 51.432 22.152 50.88 20.064 49.776C18 48.648 16.368 47.1 15.168 45.132C13.992 43.14 13.404 40.896 13.404 38.4C13.404 35.904 13.992 33.672 15.168 31.704C16.368 29.712 18 28.164 20.064 27.06C22.152 25.932 24.492 25.368 27.084 25.368C29.268 25.368 31.236 25.752 32.988 26.52C34.764 27.288 36.252 28.392 37.452 29.832L33.708 33.288C32.004 31.32 29.892 30.336 27.372 30.336C25.812 30.336 24.42 30.684 23.196 31.38C21.972 32.052 21.012 33 20.316 34.224C19.644 35.448 19.308 36.84 19.308 38.4C19.308 39.96 19.644 41.352 20.316 42.576C21.012 43.8 21.972 44.76 23.196 45.456C24.42 46.128 25.812 46.464 27.372 46.464C29.892 46.464 32.004 45.468 33.708 43.476L37.452 46.932C36.252 48.396 34.764 49.512 32.988 50.28C31.212 51.048 29.232 51.432 27.048 51.432ZM49.4594 51.432C47.4674 51.432 45.5354 51.168 43.6634 50.64C41.8154 50.088 40.3274 49.38 39.1994 48.516L41.1794 44.124C42.2594 44.916 43.5434 45.552 45.0314 46.032C46.5194 46.512 48.0074 46.752 49.4954 46.752C51.1514 46.752 52.3754 46.512 53.1674 46.032C53.9594 45.528 54.3554 44.868 54.3554 44.052C54.3554 43.452 54.1154 42.96 53.6354 42.576C53.1794 42.168 52.5794 41.844 51.8354 41.604C51.1154 41.364 50.1314 41.1 48.8834 40.812C46.9634 40.356 45.3914 39.9 44.1674 39.444C42.9434 38.988 41.8874 38.256 40.9994 37.248C40.1354 36.24 39.7034 34.896 39.7034 33.216C39.7034 31.752 40.0994 30.432 40.8914 29.256C41.6834 28.056 42.8714 27.108 44.4554 26.412C46.0634 25.716 48.0194 25.368 50.3234 25.368C51.9314 25.368 53.5034 25.56 55.0394 25.944C56.5754 26.328 57.9194 26.88 59.0714 27.6L57.2714 32.028C54.9434 30.708 52.6154 30.048 50.2874 30.048C48.6554 30.048 47.4434 30.312 46.6514 30.84C45.8834 31.368 45.4994 32.064 45.4994 32.928C45.4994 33.792 45.9434 34.44 46.8314 34.872C47.7434 35.28 49.1234 35.688 50.9714 36.096C52.8914 36.552 54.4634 37.008 55.6874 37.464C56.9114 37.92 57.9554 38.64 58.8194 39.624C59.7074 40.608 60.1514 41.94 60.1514 43.62C60.1514 45.06 59.7434 46.38 58.9274 47.58C58.1354 48.756 56.9354 49.692 55.3274 50.388C53.7194 51.084 51.7634 51.432 49.4594 51.432Z" fill="#880000"/>
</svg>
