<svg width="42" height="42" viewBox="0 0 42 42" fill="none" xmlns="http://www.w3.org/2000/svg">
    <path d="M20.9983 12.9097C18.8521 12.9097 16.7939 13.7623 15.2763 15.2798C13.7588 16.7974 12.9063 18.8556 12.9062 21.0017C12.9063 23.1479 13.7588 25.2061 15.2763 26.7237C16.7939 28.2412 18.8521 29.0937 20.9983 29.0937C23.1444 29.0937 25.2026 28.2412 26.7202 26.7237C28.2377 25.2061 29.0903 23.1479 29.0903 21.0017C29.0903 18.8556 28.2377 16.7974 26.7202 15.2798C25.2026 13.7623 23.1444 12.9097 20.9983 12.9097ZM20.9983 26.257C19.604 26.257 18.2669 25.7031 17.281 24.7173C16.2951 23.7314 15.7413 22.3942 15.7413 21C15.7413 19.6058 16.2951 18.2686 17.281 17.2827C18.2669 16.2969 19.604 15.743 20.9983 15.743C22.3925 15.743 23.7296 16.2969 24.7155 17.2827C25.7014 18.2686 26.2553 19.6058 26.2553 21C26.2553 22.3942 25.7014 23.7314 24.7155 24.7173C23.7296 25.7031 22.3925 26.257 20.9983 26.257Z" fill="white"/>
    <path d="M29.4105 14.4988C30.4524 14.4988 31.2971 13.6541 31.2971 12.6123C31.2971 11.5704 30.4524 10.7258 29.4105 10.7258C28.3687 10.7258 27.524 11.5704 27.524 12.6123C27.524 13.6541 28.3687 14.4988 29.4105 14.4988Z" fill="white"/>
    <path d="M35.9327 10.6943C35.5275 9.64807 34.9084 8.698 34.115 7.90486C33.3216 7.11172 32.3713 6.49298 31.3249 6.08826C30.1005 5.62863 28.807 5.38011 27.4994 5.35326C25.8142 5.27976 25.2804 5.25876 21.0069 5.25876C16.7334 5.25876 16.1857 5.25876 14.5144 5.35326C13.2078 5.37873 11.9152 5.62731 10.6924 6.08826C9.64581 6.49251 8.69526 7.11108 7.90175 7.90428C7.10825 8.69748 6.48932 9.6478 6.08467 10.6943C5.62495 11.9186 5.37699 13.2122 5.35142 14.5198C5.27617 16.2033 5.25342 16.737 5.25342 21.0123C5.25342 25.2858 5.25342 25.83 5.35142 27.5048C5.37767 28.8138 5.62442 30.1053 6.08467 31.332C6.49045 32.3781 7.10999 33.328 7.90368 34.1211C8.69738 34.9142 9.64778 35.533 10.6942 35.938C11.9147 36.4161 13.2078 36.6824 14.5179 36.7255C16.2032 36.799 16.7369 36.8218 21.0104 36.8218C25.2839 36.8218 25.8317 36.8218 27.5029 36.7255C28.8103 36.6989 30.1038 36.451 31.3284 35.9923C32.3745 35.5866 33.3245 34.9673 34.1179 34.174C34.9112 33.3806 35.5305 32.4306 35.9362 31.3845C36.3964 30.1595 36.6432 28.868 36.6694 27.559C36.7447 25.8755 36.7674 25.3418 36.7674 21.0665C36.7674 16.7913 36.7674 16.2488 36.6694 14.574C36.649 13.248 36.3998 11.9354 35.9327 10.6943ZM33.8012 27.3753C33.7899 28.3838 33.6058 29.3829 33.2569 30.3293C32.9941 31.0098 32.5918 31.6278 32.0758 32.1434C31.5598 32.6591 30.9416 33.0611 30.2609 33.3235C29.3251 33.6708 28.3365 33.8549 27.3384 33.8678C25.6759 33.9448 25.2069 33.964 20.9439 33.964C16.6774 33.964 16.2417 33.964 14.5477 33.8678C13.55 33.8555 12.562 33.6714 11.6269 33.3235C10.9439 33.0627 10.3232 32.6615 9.80498 32.1457C9.28678 31.6299 8.88263 31.0111 8.61867 30.3293C8.2747 29.3931 8.09071 28.4057 8.07442 27.4085C7.99917 25.746 7.98167 25.277 7.98167 21.014C7.98167 16.7493 7.98167 16.3135 8.07442 14.6178C8.08573 13.6098 8.26981 12.6112 8.61867 11.6655C9.15242 10.2848 10.2462 9.19801 11.6269 8.66951C12.5624 8.32325 13.5502 8.13919 14.5477 8.12526C16.2119 8.05001 16.6792 8.02901 20.9439 8.02901C25.2087 8.02901 25.6462 8.02901 27.3384 8.12526C28.3366 8.13727 29.3253 8.32138 30.2609 8.66951C30.9415 8.93249 31.5597 9.33486 32.0756 9.85081C32.5916 10.3668 32.9939 10.9849 33.2569 11.6655C33.6009 12.6017 33.7849 13.589 33.8012 14.5863C33.8764 16.2505 33.8957 16.7178 33.8957 20.9825C33.8957 25.2455 33.8957 25.704 33.8204 27.377H33.8012V27.3753Z" fill="white"/>
</svg>
