<svg width="39" height="38" viewBox="0 0 39 38" fill="none" xmlns="http://www.w3.org/2000/svg">
    <path d="M31.773 4.74524C31.3817 4.77297 30.9977 4.86241 30.6359 5.01005H30.631C30.2837 5.14424 28.6323 5.82111 26.1216 6.84711L17.1248 10.5391C10.6691 13.1872 4.32307 15.7949 4.32307 15.7949L4.39863 15.7664C4.39863 15.7664 3.9611 15.9066 3.50407 16.2117C3.22172 16.3868 2.97875 16.6159 2.78988 16.8851C2.56563 17.2057 2.38525 17.6961 2.45228 18.2032C2.56197 19.0606 3.13235 19.5747 3.54185 19.8586C3.95622 20.1459 4.3511 20.2801 4.3511 20.2801H4.36085L10.312 22.2336C10.5789 23.0684 12.1255 28.0226 12.4972 29.1638C12.7166 29.8454 12.9299 30.2717 13.1968 30.5971C13.326 30.7634 13.4771 30.9023 13.6587 31.0139C13.7531 31.0674 13.8538 31.1097 13.9585 31.1398L13.8976 31.1256C13.9158 31.1303 13.9305 31.1446 13.9439 31.1493C13.9926 31.1624 14.0255 31.1671 14.0877 31.1766C15.0298 31.4545 15.7866 30.8845 15.7866 30.8845L15.8293 30.8512L19.3429 27.7341L25.2319 32.1361L25.366 32.1919C26.5933 32.7168 27.8364 32.4247 28.4933 31.9093C29.1551 31.3904 29.4123 30.7266 29.4123 30.7266L29.4549 30.6197L34.0057 7.90399C34.1349 7.34349 34.1678 6.81862 34.0252 6.30918C33.8781 5.7936 33.5387 5.35016 33.0734 5.06586C32.6827 4.83444 32.2296 4.72274 31.773 4.74524ZM31.6499 7.17962C31.645 7.25443 31.6596 7.24611 31.6255 7.3898V7.40287L27.1173 29.8822C27.0978 29.9143 27.0649 29.9844 26.9748 30.0544C26.8797 30.1281 26.8041 30.1744 26.408 30.0212L19.2052 24.6406L14.8543 28.5047L15.7683 22.8166L27.5366 12.1291C28.0217 11.6897 27.8596 11.5971 27.8596 11.5971C27.8937 11.058 27.1271 11.4392 27.1271 11.4392L12.2876 20.3965L12.2827 20.3727L5.1701 18.0393V18.0346L5.15182 18.031C5.16428 18.027 5.17649 18.0222 5.18838 18.0167L5.22738 17.9977L5.26516 17.9847C5.26516 17.9847 11.6161 15.3769 18.0718 12.7288C21.3039 11.4024 24.5604 10.0664 27.0649 9.03568C29.5695 8.01087 31.4208 7.25918 31.5256 7.2188C31.6255 7.1808 31.578 7.1808 31.6499 7.1808V7.17962Z" fill="white"/>
</svg>
